# xmcd
# 
# Track frame offsets:
#     150
#     18425
#     42347
#     60630
#     81197
#     97902
#     112100
#     129182
#     149225
#     164525
#     180170
#     196607
#     217197
#     239615
#     259605
#     285282
# 
# Disc length: 4440
# 
# Revision: 2
# Processed by: cddbd v1.5.2PL0 Copyright (c) Steve Scherf et al.
# Submitted via: fre:ac v1.0.27
# 
DISCID=e0115610
DTITLE=安室 奈美恵 - STYLE
DYEAR=2003
DGENRE=J-POP
TTITLE0=01-Namie's Style
TTITLE1=02-Indy Lady feat.ZEEBRA
TTITLE2=03-Put 'Em Up
TTITLE3=04-SO CRAZY
TTITLE4=05-Don't Lie To Me
TTITLE5=06-LOVEBITE
TTITLE6=07-Four Seasons
TTITLE7=08-Fish feat. VERBAL ＆ Arkitec(MICBANDITZ)
TTITLE8=09-gimme more
TTITLE9=10-As Good As
TTITLE10=11-shine more
TTITLE11=12-Come
TTITLE12=13-Wishing On The Same Star
TTITLE13=14-SO CRAZY (MAD BEAR MIX)
TTITLE14=15-Wishing On The Same Star (Movie Version)
TTITLE15=date
EXTD=YEAR: 2003
EXTT0=
EXTT1=
EXTT2=
EXTT3=
EXTT4=
EXTT5=
EXTT6=
EXTT7=
EXTT8=
EXTT9=
EXTT10=
EXTT11=
EXTT12=
EXTT13=
EXTT14=
EXTT15=
PLAYORDER=
